<mxfile host="app.diagrams.net" modified="2023-10-28T20:06:53.170Z" agent="Mozilla/5.0 (Windows NT 10.0; Win64; x64; rv:109.0) Gecko/20100101 Firefox/119.0" etag="TGtSAY7J-13csehU7u0j" version="22.0.8" type="device">
  <diagram name="Seite-1" id="7vXnL1qeXquCrzppWdFm">
    <mxGraphModel dx="911" dy="596" grid="1" gridSize="10" guides="1" tooltips="1" connect="1" arrows="1" fold="1" page="1" pageScale="1" pageWidth="827" pageHeight="1169" math="0" shadow="0">
      <root>
        <mxCell id="0" />
        <mxCell id="1" parent="0" />
        <mxCell id="8rybxXkPChXkOs9ydnZr-1" style="edgeStyle=orthogonalEdgeStyle;rounded=0;orthogonalLoop=1;jettySize=auto;html=1;entryX=0;entryY=0.5;entryDx=0;entryDy=0;shape=link;" edge="1" parent="1" source="8rybxXkPChXkOs9ydnZr-3" target="8rybxXkPChXkOs9ydnZr-9">
          <mxGeometry relative="1" as="geometry" />
        </mxCell>
        <mxCell id="8rybxXkPChXkOs9ydnZr-2" style="edgeStyle=orthogonalEdgeStyle;rounded=0;orthogonalLoop=1;jettySize=auto;html=1;entryX=0.5;entryY=0;entryDx=0;entryDy=0;shape=link;" edge="1" parent="1" source="8rybxXkPChXkOs9ydnZr-27" target="8rybxXkPChXkOs9ydnZr-6">
          <mxGeometry relative="1" as="geometry" />
        </mxCell>
        <mxCell id="8rybxXkPChXkOs9ydnZr-3" value="&lt;div style=&quot;font-size: 13px;&quot;&gt;10.10.255.1&lt;/div&gt;&lt;div style=&quot;font-size: 13px;&quot;&gt;&lt;br&gt;&lt;/div&gt;&lt;div style=&quot;font-size: 13px;&quot;&gt;&lt;font style=&quot;font-size: 20px;&quot;&gt;r1v&lt;/font&gt;&lt;/div&gt;" style="whiteSpace=wrap;html=1;aspect=fixed;fontSize=13;fillColor=#dae8fc;strokeColor=#6c8ebf;gradientColor=#7ea6e0;verticalAlign=top;fontStyle=1" vertex="1" parent="1">
          <mxGeometry x="124" y="240" width="80" height="80" as="geometry" />
        </mxCell>
        <mxCell id="8rybxXkPChXkOs9ydnZr-4" style="edgeStyle=orthogonalEdgeStyle;rounded=0;orthogonalLoop=1;jettySize=auto;html=1;entryX=0;entryY=0.5;entryDx=0;entryDy=0;shape=link;" edge="1" parent="1" source="8rybxXkPChXkOs9ydnZr-6" target="8rybxXkPChXkOs9ydnZr-11">
          <mxGeometry relative="1" as="geometry" />
        </mxCell>
        <mxCell id="8rybxXkPChXkOs9ydnZr-5" style="edgeStyle=orthogonalEdgeStyle;rounded=0;orthogonalLoop=1;jettySize=auto;html=1;entryX=1;entryY=0.5;entryDx=0;entryDy=0;shape=link;" edge="1" parent="1" source="8rybxXkPChXkOs9ydnZr-6" target="8rybxXkPChXkOs9ydnZr-60">
          <mxGeometry relative="1" as="geometry" />
        </mxCell>
        <mxCell id="8rybxXkPChXkOs9ydnZr-6" value="&lt;div style=&quot;font-size: 13px;&quot;&gt;&lt;font style=&quot;font-size: 20px;&quot;&gt;r5v&lt;/font&gt;&lt;/div&gt;&lt;div style=&quot;font-size: 13px;&quot;&gt;&lt;br style=&quot;font-size: 13px;&quot;&gt;&lt;/div&gt;&lt;div style=&quot;font-size: 13px;&quot;&gt;10.10.255.5&lt;br style=&quot;font-size: 13px;&quot;&gt;&lt;/div&gt;" style="whiteSpace=wrap;html=1;aspect=fixed;fontSize=13;fillColor=#dae8fc;strokeColor=#6c8ebf;gradientColor=#7ea6e0;verticalAlign=bottom;fontStyle=1" vertex="1" parent="1">
          <mxGeometry x="124" y="400" width="80" height="80" as="geometry" />
        </mxCell>
        <mxCell id="8rybxXkPChXkOs9ydnZr-7" style="edgeStyle=orthogonalEdgeStyle;rounded=0;orthogonalLoop=1;jettySize=auto;html=1;entryX=0;entryY=0.5;entryDx=0;entryDy=0;shape=link;" edge="1" parent="1" source="8rybxXkPChXkOs9ydnZr-9" target="8rybxXkPChXkOs9ydnZr-14">
          <mxGeometry relative="1" as="geometry" />
        </mxCell>
        <mxCell id="8rybxXkPChXkOs9ydnZr-8" style="edgeStyle=orthogonalEdgeStyle;rounded=0;orthogonalLoop=1;jettySize=auto;html=1;entryX=0.5;entryY=0;entryDx=0;entryDy=0;shape=link;" edge="1" parent="1" source="8rybxXkPChXkOs9ydnZr-31" target="8rybxXkPChXkOs9ydnZr-11">
          <mxGeometry relative="1" as="geometry" />
        </mxCell>
        <mxCell id="8rybxXkPChXkOs9ydnZr-9" value="&lt;div style=&quot;font-size: 13px;&quot;&gt;10.10.255.2&lt;/div&gt;&lt;div style=&quot;font-size: 13px;&quot;&gt;&lt;br&gt;&lt;/div&gt;&lt;div style=&quot;font-size: 13px;&quot;&gt;&lt;font style=&quot;font-size: 20px;&quot;&gt;r2v&lt;/font&gt;&lt;/div&gt;" style="whiteSpace=wrap;html=1;aspect=fixed;fontSize=13;fillColor=#dae8fc;strokeColor=#6c8ebf;gradientColor=#7ea6e0;verticalAlign=top;fontStyle=1" vertex="1" parent="1">
          <mxGeometry x="288" y="240" width="80" height="80" as="geometry" />
        </mxCell>
        <mxCell id="8rybxXkPChXkOs9ydnZr-10" style="edgeStyle=orthogonalEdgeStyle;rounded=0;orthogonalLoop=1;jettySize=auto;html=1;entryX=0;entryY=0.5;entryDx=0;entryDy=0;shape=link;" edge="1" parent="1" source="8rybxXkPChXkOs9ydnZr-11" target="8rybxXkPChXkOs9ydnZr-16">
          <mxGeometry relative="1" as="geometry" />
        </mxCell>
        <mxCell id="8rybxXkPChXkOs9ydnZr-11" value="&lt;div style=&quot;font-size: 20px;&quot;&gt;r6v&lt;/div&gt;&lt;div style=&quot;font-size: 13px;&quot;&gt;&lt;br style=&quot;font-size: 13px;&quot;&gt;&lt;/div&gt;&lt;div style=&quot;font-size: 13px;&quot;&gt;10.10.255.6&lt;br style=&quot;font-size: 13px;&quot;&gt;&lt;/div&gt;" style="whiteSpace=wrap;html=1;aspect=fixed;fontSize=13;fillColor=#dae8fc;strokeColor=#6c8ebf;gradientColor=#7ea6e0;verticalAlign=bottom;fontStyle=1" vertex="1" parent="1">
          <mxGeometry x="288" y="400" width="80" height="80" as="geometry" />
        </mxCell>
        <mxCell id="8rybxXkPChXkOs9ydnZr-12" style="edgeStyle=orthogonalEdgeStyle;rounded=0;orthogonalLoop=1;jettySize=auto;html=1;entryX=0;entryY=0.5;entryDx=0;entryDy=0;shape=link;" edge="1" parent="1" source="8rybxXkPChXkOs9ydnZr-25" target="8rybxXkPChXkOs9ydnZr-19">
          <mxGeometry relative="1" as="geometry" />
        </mxCell>
        <mxCell id="8rybxXkPChXkOs9ydnZr-13" style="edgeStyle=orthogonalEdgeStyle;rounded=0;orthogonalLoop=1;jettySize=auto;html=1;entryX=0.5;entryY=0;entryDx=0;entryDy=0;shape=link;" edge="1" parent="1" source="8rybxXkPChXkOs9ydnZr-14" target="8rybxXkPChXkOs9ydnZr-16">
          <mxGeometry relative="1" as="geometry" />
        </mxCell>
        <mxCell id="8rybxXkPChXkOs9ydnZr-14" value="&lt;div style=&quot;font-size: 13px;&quot;&gt;10.10.255.3&lt;/div&gt;&lt;div style=&quot;font-size: 13px;&quot;&gt;&lt;br&gt;&lt;/div&gt;&lt;div style=&quot;font-size: 13px;&quot;&gt;&lt;font style=&quot;font-size: 20px;&quot;&gt;r3v&lt;/font&gt;&lt;/div&gt;" style="whiteSpace=wrap;html=1;aspect=fixed;fontSize=13;fillColor=#dae8fc;strokeColor=#6c8ebf;gradientColor=#7ea6e0;verticalAlign=top;fontStyle=1" vertex="1" parent="1">
          <mxGeometry x="454" y="240" width="80" height="80" as="geometry" />
        </mxCell>
        <mxCell id="8rybxXkPChXkOs9ydnZr-15" style="edgeStyle=orthogonalEdgeStyle;rounded=0;orthogonalLoop=1;jettySize=auto;html=1;entryX=0;entryY=0.5;entryDx=0;entryDy=0;shape=link;" edge="1" parent="1" source="8rybxXkPChXkOs9ydnZr-34" target="8rybxXkPChXkOs9ydnZr-21">
          <mxGeometry relative="1" as="geometry" />
        </mxCell>
        <mxCell id="8rybxXkPChXkOs9ydnZr-16" value="&lt;div style=&quot;font-size: 13px;&quot;&gt;&lt;font style=&quot;font-size: 20px;&quot;&gt;r7v&lt;/font&gt;&lt;/div&gt;&lt;div style=&quot;font-size: 13px;&quot;&gt;&lt;br style=&quot;font-size: 13px;&quot;&gt;&lt;/div&gt;&lt;div style=&quot;font-size: 13px;&quot;&gt;10.10.255.7&lt;br style=&quot;font-size: 13px;&quot;&gt;&lt;/div&gt;" style="whiteSpace=wrap;html=1;aspect=fixed;fontSize=13;fillColor=#dae8fc;strokeColor=#6c8ebf;gradientColor=#7ea6e0;verticalAlign=bottom;fontStyle=1" vertex="1" parent="1">
          <mxGeometry x="454" y="400" width="80" height="80" as="geometry" />
        </mxCell>
        <mxCell id="8rybxXkPChXkOs9ydnZr-17" style="edgeStyle=orthogonalEdgeStyle;rounded=0;orthogonalLoop=1;jettySize=auto;html=1;entryX=0.5;entryY=0;entryDx=0;entryDy=0;shape=link;" edge="1" parent="1" source="8rybxXkPChXkOs9ydnZr-19" target="8rybxXkPChXkOs9ydnZr-21">
          <mxGeometry relative="1" as="geometry" />
        </mxCell>
        <mxCell id="8rybxXkPChXkOs9ydnZr-18" style="edgeStyle=orthogonalEdgeStyle;rounded=0;orthogonalLoop=1;jettySize=auto;html=1;entryX=0;entryY=0.5;entryDx=0;entryDy=0;shape=link;" edge="1" parent="1" source="8rybxXkPChXkOs9ydnZr-19" target="8rybxXkPChXkOs9ydnZr-36">
          <mxGeometry relative="1" as="geometry" />
        </mxCell>
        <mxCell id="8rybxXkPChXkOs9ydnZr-19" value="&lt;div style=&quot;font-size: 13px;&quot;&gt;10.10.255.4&lt;/div&gt;&lt;div style=&quot;font-size: 13px;&quot;&gt;&lt;br&gt;&lt;/div&gt;&lt;div style=&quot;font-size: 13px;&quot;&gt;&lt;font style=&quot;font-size: 20px;&quot;&gt;r4v&lt;/font&gt;&lt;/div&gt;" style="whiteSpace=wrap;html=1;aspect=fixed;fontSize=13;fillColor=#dae8fc;strokeColor=#6c8ebf;gradientColor=#7ea6e0;fontStyle=1;verticalAlign=top;" vertex="1" parent="1">
          <mxGeometry x="624" y="240" width="80" height="80" as="geometry" />
        </mxCell>
        <mxCell id="8rybxXkPChXkOs9ydnZr-20" style="edgeStyle=orthogonalEdgeStyle;rounded=0;orthogonalLoop=1;jettySize=auto;html=1;entryX=0;entryY=0.5;entryDx=0;entryDy=0;shape=link;" edge="1" parent="1" source="8rybxXkPChXkOs9ydnZr-21" target="8rybxXkPChXkOs9ydnZr-37">
          <mxGeometry relative="1" as="geometry" />
        </mxCell>
        <mxCell id="8rybxXkPChXkOs9ydnZr-21" value="&lt;div style=&quot;font-size: 13px;&quot;&gt;&lt;font style=&quot;font-size: 20px;&quot;&gt;r8v&lt;/font&gt;&lt;/div&gt;&lt;div style=&quot;font-size: 13px;&quot;&gt;&lt;br style=&quot;font-size: 13px;&quot;&gt;&lt;/div&gt;&lt;div style=&quot;font-size: 13px;&quot;&gt;10.10.255.8&lt;br style=&quot;font-size: 13px;&quot;&gt;&lt;/div&gt;" style="whiteSpace=wrap;html=1;aspect=fixed;fontSize=13;fillColor=#dae8fc;strokeColor=#6c8ebf;gradientColor=#7ea6e0;verticalAlign=bottom;fontStyle=1" vertex="1" parent="1">
          <mxGeometry x="624" y="400" width="80" height="80" as="geometry" />
        </mxCell>
        <mxCell id="8rybxXkPChXkOs9ydnZr-22" value="&lt;div style=&quot;font-size: 10px;&quot;&gt;10.10.12&lt;br style=&quot;font-size: 10px;&quot;&gt;&lt;/div&gt;" style="ellipse;whiteSpace=wrap;html=1;aspect=fixed;fontSize=10;fillColor=#0050ef;fontColor=#ffffff;strokeColor=#001DBC;" vertex="1" parent="1">
          <mxGeometry x="225" y="255" width="50" height="50" as="geometry" />
        </mxCell>
        <mxCell id="8rybxXkPChXkOs9ydnZr-23" value="10.10.23" style="ellipse;whiteSpace=wrap;html=1;aspect=fixed;fontSize=10;fillColor=#0050ef;fontColor=#ffffff;strokeColor=#001DBC;" vertex="1" parent="1">
          <mxGeometry x="384" y="255" width="50" height="50" as="geometry" />
        </mxCell>
        <mxCell id="8rybxXkPChXkOs9ydnZr-24" value="" style="edgeStyle=orthogonalEdgeStyle;rounded=0;orthogonalLoop=1;jettySize=auto;html=1;entryX=0;entryY=0.5;entryDx=0;entryDy=0;shape=link;" edge="1" parent="1" source="8rybxXkPChXkOs9ydnZr-14" target="8rybxXkPChXkOs9ydnZr-25">
          <mxGeometry relative="1" as="geometry">
            <mxPoint x="534" y="280" as="sourcePoint" />
            <mxPoint x="624" y="280" as="targetPoint" />
          </mxGeometry>
        </mxCell>
        <mxCell id="8rybxXkPChXkOs9ydnZr-25" value="10.10.34" style="ellipse;whiteSpace=wrap;html=1;aspect=fixed;fontSize=10;fillColor=#0050ef;fontColor=#ffffff;strokeColor=#001DBC;" vertex="1" parent="1">
          <mxGeometry x="554" y="255" width="50" height="50" as="geometry" />
        </mxCell>
        <mxCell id="8rybxXkPChXkOs9ydnZr-26" value="" style="edgeStyle=orthogonalEdgeStyle;rounded=0;orthogonalLoop=1;jettySize=auto;html=1;entryX=0.5;entryY=0;entryDx=0;entryDy=0;shape=link;exitX=0.497;exitY=1.004;exitDx=0;exitDy=0;exitPerimeter=0;" edge="1" parent="1" source="8rybxXkPChXkOs9ydnZr-3" target="8rybxXkPChXkOs9ydnZr-27">
          <mxGeometry relative="1" as="geometry">
            <mxPoint x="164" y="320" as="sourcePoint" />
            <mxPoint x="164" y="400" as="targetPoint" />
          </mxGeometry>
        </mxCell>
        <mxCell id="8rybxXkPChXkOs9ydnZr-27" value="&lt;div style=&quot;font-size: 10px;&quot;&gt;10.10.15&lt;br style=&quot;font-size: 10px;&quot;&gt;&lt;/div&gt;" style="ellipse;whiteSpace=wrap;html=1;aspect=fixed;fontSize=10;fillColor=#0050ef;fontColor=#ffffff;strokeColor=#001DBC;" vertex="1" parent="1">
          <mxGeometry x="139" y="335" width="50" height="50" as="geometry" />
        </mxCell>
        <mxCell id="8rybxXkPChXkOs9ydnZr-28" value="10.10.56" style="ellipse;whiteSpace=wrap;html=1;aspect=fixed;fontSize=10;fillColor=#0050ef;fontColor=#ffffff;strokeColor=#001DBC;" vertex="1" parent="1">
          <mxGeometry x="224" y="415" width="50" height="50" as="geometry" />
        </mxCell>
        <mxCell id="8rybxXkPChXkOs9ydnZr-29" value="10.10.67" style="ellipse;whiteSpace=wrap;html=1;aspect=fixed;fontSize=10;fillColor=#0050ef;fontColor=#ffffff;strokeColor=#001DBC;" vertex="1" parent="1">
          <mxGeometry x="384" y="415" width="50" height="50" as="geometry" />
        </mxCell>
        <mxCell id="8rybxXkPChXkOs9ydnZr-30" value="" style="edgeStyle=orthogonalEdgeStyle;rounded=0;orthogonalLoop=1;jettySize=auto;html=1;entryX=0.5;entryY=0;entryDx=0;entryDy=0;shape=link;exitX=0.5;exitY=1.005;exitDx=0;exitDy=0;exitPerimeter=0;" edge="1" parent="1" source="8rybxXkPChXkOs9ydnZr-9" target="8rybxXkPChXkOs9ydnZr-31">
          <mxGeometry relative="1" as="geometry">
            <mxPoint x="328" y="320" as="sourcePoint" />
            <mxPoint x="328" y="400" as="targetPoint" />
          </mxGeometry>
        </mxCell>
        <mxCell id="8rybxXkPChXkOs9ydnZr-31" value="&lt;div&gt;10.10.26&lt;br&gt;&lt;/div&gt;" style="ellipse;whiteSpace=wrap;html=1;aspect=fixed;fontSize=10;fillColor=#0050ef;fontColor=#ffffff;strokeColor=#001DBC;" vertex="1" parent="1">
          <mxGeometry x="303" y="332.5" width="50" height="50" as="geometry" />
        </mxCell>
        <mxCell id="8rybxXkPChXkOs9ydnZr-32" value="&lt;div&gt;10.10.37&lt;br&gt;&lt;/div&gt;" style="ellipse;whiteSpace=wrap;html=1;aspect=fixed;fontSize=10;fillColor=#0050ef;fontColor=#ffffff;strokeColor=#001DBC;" vertex="1" parent="1">
          <mxGeometry x="469" y="332.5" width="50" height="50" as="geometry" />
        </mxCell>
        <mxCell id="8rybxXkPChXkOs9ydnZr-33" value="" style="edgeStyle=orthogonalEdgeStyle;rounded=0;orthogonalLoop=1;jettySize=auto;html=1;entryX=0;entryY=0.5;entryDx=0;entryDy=0;shape=link;" edge="1" parent="1" source="8rybxXkPChXkOs9ydnZr-16" target="8rybxXkPChXkOs9ydnZr-34">
          <mxGeometry relative="1" as="geometry">
            <mxPoint x="534" y="440" as="sourcePoint" />
            <mxPoint x="624" y="440" as="targetPoint" />
          </mxGeometry>
        </mxCell>
        <mxCell id="8rybxXkPChXkOs9ydnZr-34" value="10.10.78" style="ellipse;whiteSpace=wrap;html=1;aspect=fixed;fontSize=10;fillColor=#0050ef;fontColor=#ffffff;strokeColor=#001DBC;" vertex="1" parent="1">
          <mxGeometry x="554" y="415" width="50" height="50" as="geometry" />
        </mxCell>
        <mxCell id="8rybxXkPChXkOs9ydnZr-35" value="10.10.48" style="ellipse;whiteSpace=wrap;html=1;aspect=fixed;fontSize=10;fillColor=#0050ef;fontColor=#ffffff;strokeColor=#001DBC;" vertex="1" parent="1">
          <mxGeometry x="639" y="332.5" width="50" height="50" as="geometry" />
        </mxCell>
        <mxCell id="8rybxXkPChXkOs9ydnZr-36" value="4" style="ellipse;whiteSpace=wrap;html=1;aspect=fixed;fontSize=10;" vertex="1" parent="1">
          <mxGeometry x="724" y="255" width="50" height="50" as="geometry" />
        </mxCell>
        <mxCell id="8rybxXkPChXkOs9ydnZr-37" value="8" style="ellipse;whiteSpace=wrap;html=1;aspect=fixed;fontSize=10;" vertex="1" parent="1">
          <mxGeometry x="724" y="415" width="50" height="50" as="geometry" />
        </mxCell>
        <mxCell id="8rybxXkPChXkOs9ydnZr-38" value="" style="edgeStyle=orthogonalEdgeStyle;shape=link;rounded=0;orthogonalLoop=1;jettySize=auto;html=1;" edge="1" parent="1" source="8rybxXkPChXkOs9ydnZr-3" target="8rybxXkPChXkOs9ydnZr-39">
          <mxGeometry relative="1" as="geometry">
            <mxPoint x="124" y="280" as="sourcePoint" />
            <mxPoint x="34" y="360" as="targetPoint" />
          </mxGeometry>
        </mxCell>
        <mxCell id="8rybxXkPChXkOs9ydnZr-39" value="Internet" style="ellipse;whiteSpace=wrap;html=1;aspect=fixed;" vertex="1" parent="1">
          <mxGeometry x="54" y="255" width="50" height="50" as="geometry" />
        </mxCell>
        <mxCell id="8rybxXkPChXkOs9ydnZr-40" value="1" style="ellipse;whiteSpace=wrap;html=1;aspect=fixed;fillColor=#0050ef;fontColor=#ffffff;strokeColor=#001DBC;" vertex="1" parent="1">
          <mxGeometry x="189" y="270" width="20" height="20" as="geometry" />
        </mxCell>
        <mxCell id="8rybxXkPChXkOs9ydnZr-41" value="1" style="ellipse;whiteSpace=wrap;html=1;aspect=fixed;fillColor=#0050ef;fontColor=#ffffff;strokeColor=#001DBC;" vertex="1" parent="1">
          <mxGeometry x="154" y="305" width="20" height="20" as="geometry" />
        </mxCell>
        <mxCell id="8rybxXkPChXkOs9ydnZr-42" value="2" style="ellipse;whiteSpace=wrap;html=1;aspect=fixed;fillColor=#0050ef;fontColor=#ffffff;strokeColor=#001DBC;" vertex="1" parent="1">
          <mxGeometry x="283" y="270" width="20" height="20" as="geometry" />
        </mxCell>
        <mxCell id="8rybxXkPChXkOs9ydnZr-43" value="2" style="ellipse;whiteSpace=wrap;html=1;aspect=fixed;fillColor=#0050ef;fontColor=#ffffff;strokeColor=#001DBC;" vertex="1" parent="1">
          <mxGeometry x="353" y="270" width="20" height="20" as="geometry" />
        </mxCell>
        <mxCell id="8rybxXkPChXkOs9ydnZr-44" value="2" style="ellipse;whiteSpace=wrap;html=1;aspect=fixed;fillColor=#0050ef;fontColor=#ffffff;strokeColor=#001DBC;" vertex="1" parent="1">
          <mxGeometry x="318" y="305" width="20" height="20" as="geometry" />
        </mxCell>
        <mxCell id="8rybxXkPChXkOs9ydnZr-45" value="3" style="ellipse;whiteSpace=wrap;html=1;aspect=fixed;fillColor=#0050ef;fontColor=#ffffff;strokeColor=#001DBC;" vertex="1" parent="1">
          <mxGeometry x="449" y="270" width="20" height="20" as="geometry" />
        </mxCell>
        <mxCell id="8rybxXkPChXkOs9ydnZr-46" value="3" style="ellipse;whiteSpace=wrap;html=1;aspect=fixed;fillColor=#0050ef;fontColor=#ffffff;strokeColor=#001DBC;" vertex="1" parent="1">
          <mxGeometry x="484" y="305" width="20" height="20" as="geometry" />
        </mxCell>
        <mxCell id="8rybxXkPChXkOs9ydnZr-47" value="3" style="ellipse;whiteSpace=wrap;html=1;aspect=fixed;fillColor=#0050ef;fontColor=#ffffff;strokeColor=#001DBC;" vertex="1" parent="1">
          <mxGeometry x="519" y="270" width="20" height="20" as="geometry" />
        </mxCell>
        <mxCell id="8rybxXkPChXkOs9ydnZr-48" value="4" style="ellipse;whiteSpace=wrap;html=1;aspect=fixed;fillColor=#0050ef;fontColor=#ffffff;strokeColor=#001DBC;" vertex="1" parent="1">
          <mxGeometry x="619" y="270" width="20" height="20" as="geometry" />
        </mxCell>
        <mxCell id="8rybxXkPChXkOs9ydnZr-49" value="4" style="ellipse;whiteSpace=wrap;html=1;aspect=fixed;fillColor=#0050ef;fontColor=#ffffff;strokeColor=#001DBC;" vertex="1" parent="1">
          <mxGeometry x="654" y="305" width="20" height="20" as="geometry" />
        </mxCell>
        <mxCell id="8rybxXkPChXkOs9ydnZr-50" value="5" style="ellipse;whiteSpace=wrap;html=1;aspect=fixed;fillColor=#0050ef;fontColor=#ffffff;strokeColor=#001DBC;" vertex="1" parent="1">
          <mxGeometry x="189" y="430" width="20" height="20" as="geometry" />
        </mxCell>
        <mxCell id="8rybxXkPChXkOs9ydnZr-51" value="5" style="ellipse;whiteSpace=wrap;html=1;aspect=fixed;fillColor=#0050ef;fontColor=#ffffff;strokeColor=#001DBC;" vertex="1" parent="1">
          <mxGeometry x="154" y="395" width="20" height="20" as="geometry" />
        </mxCell>
        <mxCell id="8rybxXkPChXkOs9ydnZr-52" value="6" style="ellipse;whiteSpace=wrap;html=1;aspect=fixed;fillColor=#0050ef;fontColor=#ffffff;strokeColor=#001DBC;" vertex="1" parent="1">
          <mxGeometry x="353" y="430" width="20" height="20" as="geometry" />
        </mxCell>
        <mxCell id="8rybxXkPChXkOs9ydnZr-53" value="6" style="ellipse;whiteSpace=wrap;html=1;aspect=fixed;fillColor=#0050ef;fontColor=#ffffff;strokeColor=#001DBC;" vertex="1" parent="1">
          <mxGeometry x="318" y="395" width="20" height="20" as="geometry" />
        </mxCell>
        <mxCell id="8rybxXkPChXkOs9ydnZr-54" value="6" style="ellipse;whiteSpace=wrap;html=1;aspect=fixed;fillColor=#0050ef;fontColor=#ffffff;strokeColor=#001DBC;" vertex="1" parent="1">
          <mxGeometry x="283" y="430" width="20" height="20" as="geometry" />
        </mxCell>
        <mxCell id="8rybxXkPChXkOs9ydnZr-55" value="7" style="ellipse;whiteSpace=wrap;html=1;aspect=fixed;fillColor=#0050ef;fontColor=#ffffff;strokeColor=#001DBC;" vertex="1" parent="1">
          <mxGeometry x="519" y="430" width="20" height="20" as="geometry" />
        </mxCell>
        <mxCell id="8rybxXkPChXkOs9ydnZr-56" value="7" style="ellipse;whiteSpace=wrap;html=1;aspect=fixed;fillColor=#0050ef;fontColor=#ffffff;strokeColor=#001DBC;" vertex="1" parent="1">
          <mxGeometry x="484" y="395" width="20" height="20" as="geometry" />
        </mxCell>
        <mxCell id="8rybxXkPChXkOs9ydnZr-57" value="7" style="ellipse;whiteSpace=wrap;html=1;aspect=fixed;fillColor=#0050ef;fontColor=#ffffff;strokeColor=#001DBC;" vertex="1" parent="1">
          <mxGeometry x="449" y="430" width="20" height="20" as="geometry" />
        </mxCell>
        <mxCell id="8rybxXkPChXkOs9ydnZr-58" value="8" style="ellipse;whiteSpace=wrap;html=1;aspect=fixed;fillColor=#0050ef;fontColor=#ffffff;strokeColor=#001DBC;" vertex="1" parent="1">
          <mxGeometry x="619" y="430" width="20" height="20" as="geometry" />
        </mxCell>
        <mxCell id="8rybxXkPChXkOs9ydnZr-59" value="8" style="ellipse;whiteSpace=wrap;html=1;aspect=fixed;fillColor=#0050ef;fontColor=#ffffff;strokeColor=#001DBC;" vertex="1" parent="1">
          <mxGeometry x="654" y="395" width="20" height="20" as="geometry" />
        </mxCell>
        <mxCell id="8rybxXkPChXkOs9ydnZr-60" value="5" style="ellipse;whiteSpace=wrap;html=1;aspect=fixed;fontSize=10;" vertex="1" parent="1">
          <mxGeometry x="54" y="415" width="50" height="50" as="geometry" />
        </mxCell>
        <mxCell id="8rybxXkPChXkOs9ydnZr-61" style="edgeStyle=orthogonalEdgeStyle;rounded=0;orthogonalLoop=1;jettySize=auto;html=1;entryX=0;entryY=0.5;entryDx=0;entryDy=0;shape=link;" edge="1" parent="1" source="8rybxXkPChXkOs9ydnZr-62" target="8rybxXkPChXkOs9ydnZr-64">
          <mxGeometry relative="1" as="geometry" />
        </mxCell>
        <mxCell id="8rybxXkPChXkOs9ydnZr-62" value="&lt;div style=&quot;font-size: 13px;&quot;&gt;10.10.255.11&lt;/div&gt;&lt;div style=&quot;font-size: 13px;&quot;&gt;&lt;br&gt;&lt;/div&gt;&lt;div style=&quot;font-size: 13px;&quot;&gt;&lt;font style=&quot;font-size: 20px;&quot;&gt;r11m&lt;/font&gt;&lt;/div&gt;" style="whiteSpace=wrap;html=1;aspect=fixed;fontSize=13;fillColor=#dae8fc;strokeColor=#6c8ebf;gradientColor=#7ea6e0;verticalAlign=top;fontStyle=1" vertex="1" parent="1">
          <mxGeometry x="124" y="60" width="80" height="80" as="geometry" />
        </mxCell>
        <mxCell id="8rybxXkPChXkOs9ydnZr-63" style="edgeStyle=orthogonalEdgeStyle;rounded=0;orthogonalLoop=1;jettySize=auto;html=1;entryX=0.5;entryY=0;entryDx=0;entryDy=0;shape=link;" edge="1" parent="1" source="8rybxXkPChXkOs9ydnZr-69" target="8rybxXkPChXkOs9ydnZr-78">
          <mxGeometry relative="1" as="geometry">
            <mxPoint x="296.5" y="140" as="targetPoint" />
          </mxGeometry>
        </mxCell>
        <mxCell id="8rybxXkPChXkOs9ydnZr-64" value="&lt;div style=&quot;font-size: 13px;&quot;&gt;10.10.255.12&lt;/div&gt;&lt;div style=&quot;font-size: 13px;&quot;&gt;&lt;br&gt;&lt;/div&gt;&lt;div style=&quot;font-size: 13px;&quot;&gt;&lt;font style=&quot;font-size: 20px;&quot;&gt;r12m&lt;/font&gt;&lt;/div&gt;" style="whiteSpace=wrap;html=1;aspect=fixed;fontSize=13;fillColor=#dae8fc;strokeColor=#6c8ebf;gradientColor=#7ea6e0;verticalAlign=top;fontStyle=1" vertex="1" parent="1">
          <mxGeometry x="288" y="60" width="80" height="80" as="geometry" />
        </mxCell>
        <mxCell id="8rybxXkPChXkOs9ydnZr-65" value="10.11.12" style="ellipse;whiteSpace=wrap;html=1;aspect=fixed;fontSize=10;fillColor=#0050ef;fontColor=#ffffff;strokeColor=#001DBC;" vertex="1" parent="1">
          <mxGeometry x="225" y="75" width="50" height="50" as="geometry" />
        </mxCell>
        <mxCell id="8rybxXkPChXkOs9ydnZr-66" style="edgeStyle=orthogonalEdgeStyle;rounded=0;orthogonalLoop=1;jettySize=auto;html=1;entryX=0.5;entryY=1;entryDx=0;entryDy=0;shape=link;" edge="1" parent="1" source="8rybxXkPChXkOs9ydnZr-67" target="8rybxXkPChXkOs9ydnZr-73">
          <mxGeometry relative="1" as="geometry" />
        </mxCell>
        <mxCell id="8rybxXkPChXkOs9ydnZr-67" value="10.1.11" style="ellipse;whiteSpace=wrap;html=1;aspect=fixed;fontSize=10;fillColor=#0050ef;fontColor=#ffffff;strokeColor=#001DBC;" vertex="1" parent="1">
          <mxGeometry x="139" y="160" width="50" height="50" as="geometry" />
        </mxCell>
        <mxCell id="8rybxXkPChXkOs9ydnZr-68" style="edgeStyle=orthogonalEdgeStyle;rounded=0;orthogonalLoop=1;jettySize=auto;html=1;entryX=0.5;entryY=1;entryDx=0;entryDy=0;shape=link;" edge="1" parent="1" source="8rybxXkPChXkOs9ydnZr-69" target="8rybxXkPChXkOs9ydnZr-76">
          <mxGeometry relative="1" as="geometry" />
        </mxCell>
        <mxCell id="8rybxXkPChXkOs9ydnZr-69" value="10.2.12" style="ellipse;whiteSpace=wrap;html=1;aspect=fixed;fontSize=10;fillColor=#0050ef;fontColor=#ffffff;strokeColor=#001DBC;" vertex="1" parent="1">
          <mxGeometry x="303" y="160" width="50" height="50" as="geometry" />
        </mxCell>
        <mxCell id="8rybxXkPChXkOs9ydnZr-70" value="" style="edgeStyle=orthogonalEdgeStyle;shape=link;rounded=0;orthogonalLoop=1;jettySize=auto;html=1;" edge="1" parent="1" source="8rybxXkPChXkOs9ydnZr-62" target="8rybxXkPChXkOs9ydnZr-71">
          <mxGeometry relative="1" as="geometry">
            <mxPoint x="124" y="100" as="sourcePoint" />
            <mxPoint x="34" y="180" as="targetPoint" />
          </mxGeometry>
        </mxCell>
        <mxCell id="8rybxXkPChXkOs9ydnZr-71" value="Internet" style="ellipse;whiteSpace=wrap;html=1;aspect=fixed;" vertex="1" parent="1">
          <mxGeometry x="54" y="75" width="50" height="50" as="geometry" />
        </mxCell>
        <mxCell id="8rybxXkPChXkOs9ydnZr-72" value="11" style="ellipse;whiteSpace=wrap;html=1;aspect=fixed;fillColor=#0050ef;fontColor=#ffffff;strokeColor=#001DBC;" vertex="1" parent="1">
          <mxGeometry x="189" y="90" width="20" height="20" as="geometry" />
        </mxCell>
        <mxCell id="8rybxXkPChXkOs9ydnZr-73" value="11" style="ellipse;whiteSpace=wrap;html=1;aspect=fixed;fillColor=#0050ef;fontColor=#ffffff;strokeColor=#001DBC;" vertex="1" parent="1">
          <mxGeometry x="154" y="125" width="20" height="20" as="geometry" />
        </mxCell>
        <mxCell id="8rybxXkPChXkOs9ydnZr-74" value="12" style="ellipse;whiteSpace=wrap;html=1;aspect=fixed;fillColor=#0050ef;fontColor=#ffffff;strokeColor=#001DBC;" vertex="1" parent="1">
          <mxGeometry x="283" y="90" width="20" height="20" as="geometry" />
        </mxCell>
        <mxCell id="8rybxXkPChXkOs9ydnZr-75" value="12" style="ellipse;whiteSpace=wrap;html=1;aspect=fixed;fillColor=#0050ef;fontColor=#ffffff;strokeColor=#001DBC;" vertex="1" parent="1">
          <mxGeometry x="353" y="90" width="20" height="20" as="geometry" />
        </mxCell>
        <mxCell id="8rybxXkPChXkOs9ydnZr-76" value="12" style="ellipse;whiteSpace=wrap;html=1;aspect=fixed;fillColor=#0050ef;fontColor=#ffffff;strokeColor=#001DBC;" vertex="1" parent="1">
          <mxGeometry x="318" y="125" width="20" height="20" as="geometry" />
        </mxCell>
        <mxCell id="8rybxXkPChXkOs9ydnZr-77" value="1" style="ellipse;whiteSpace=wrap;html=1;aspect=fixed;fillColor=#0050ef;fontColor=#ffffff;strokeColor=#001DBC;" vertex="1" parent="1">
          <mxGeometry x="154" y="230" width="20" height="20" as="geometry" />
        </mxCell>
        <mxCell id="8rybxXkPChXkOs9ydnZr-78" value="2" style="ellipse;whiteSpace=wrap;html=1;aspect=fixed;fillColor=#0050ef;fontColor=#ffffff;strokeColor=#001DBC;" vertex="1" parent="1">
          <mxGeometry x="318" y="230" width="20" height="20" as="geometry" />
        </mxCell>
        <mxCell id="8rybxXkPChXkOs9ydnZr-79" style="edgeStyle=orthogonalEdgeStyle;rounded=0;orthogonalLoop=1;jettySize=auto;html=1;entryX=0.5;entryY=0;entryDx=0;entryDy=0;shape=link;exitX=0.5;exitY=1;exitDx=0;exitDy=0;" edge="1" parent="1" source="8rybxXkPChXkOs9ydnZr-67" target="8rybxXkPChXkOs9ydnZr-77">
          <mxGeometry relative="1" as="geometry">
            <mxPoint x="160" y="210" as="sourcePoint" />
            <mxPoint x="160" y="230" as="targetPoint" />
          </mxGeometry>
        </mxCell>
      </root>
    </mxGraphModel>
  </diagram>
</mxfile>
